<svg height="300" width="300" xmlns="http://www.w3.org/2000/svg" viewBox="0 0 100 100" xml:space="preserve"><path fill="#FFF" d="M95 45.909H82.443c-1.855-14.775-13.577-26.497-28.352-28.352V5h-8.182v12.557c-14.775 1.855-26.497 13.577-28.352 28.352H5v8.182h12.557c1.855 14.775 13.577 26.497 28.352 28.352V95h8.182V82.443c14.775-1.855 26.497-13.577 28.352-28.352H95v-8.182zM54.091 74.177V62.273h-8.182v11.905C35.638 72.45 27.55 64.362 25.823 54.091h11.905v-8.182H25.823C27.55 35.638 35.638 27.55 45.91 25.822v11.905h8.182V25.823c10.271 1.727 18.359 9.815 20.087 20.087H62.273v8.182h11.905c-1.728 10.27-9.816 18.358-20.087 20.085z"/></svg>