<svg height='300px' width='300px'  fill="#000000" xmlns="http://www.w3.org/2000/svg" xmlns:xlink="http://www.w3.org/1999/xlink" version="1.1" x="0px" y="0px" viewBox="0 0 100 100" enable-background="new 0 0 100 100" xml:space="preserve"><path fill="#FFFFFF" d="M95,45.909H82.443c-1.855-14.775-13.577-26.497-28.352-28.352V5h-8.182v12.557  c-14.775,1.855-26.497,13.577-28.352,28.352H5v8.182h12.557c1.855,14.775,13.577,26.497,28.352,28.352V95h8.182V82.443  c14.775-1.855,26.497-13.577,28.352-28.352H95V45.909z M54.091,74.177V62.273h-8.182v11.905  C35.638,72.45,27.55,64.362,25.823,54.091h11.905v-8.182H25.823c1.727-10.271,9.815-18.359,20.087-20.087v11.905h8.182V25.823  c10.271,1.727,18.359,9.815,20.087,20.087H62.273v8.182h11.905C72.45,64.362,64.362,72.45,54.091,74.177z"></path></svg>